<svg xmlns="http://www.w3.org/2000/svg" viewBox="0 0 240 100"><defs><style>.cls-1{fill:#f2f2f2;}.cls-2{fill:#f40;}</style></defs><title>Asset 1</title><g id="Layer_2" data-name="Layer 2"><g id="Layer_1-2" data-name="Layer 1"><rect class="cls-1" x="0.5" y="0.5" width="239" height="99"/><path class="cls-2" d="M239,1V99H1V1H239m1-1H0V100H240V0Z"/><path class="cls-2" d="M97,68.06a43.29,43.29,0,0,1-12.91,2.18C77,70.24,71.91,68.46,68.35,65S62.85,56.64,62.9,51C63,38.11,72.31,30.76,85,30.76a26.62,26.62,0,0,1,10.73,1.89l-1.84,7a21.43,21.43,0,0,0-9-1.66c-7.29,0-12.8,4.13-12.8,12.51,0,8,5,12.68,12.17,12.68a11.7,11.7,0,0,0,4.3-.57V54.52h-6V47.69H97Z"/><path class="cls-2" d="M103.82,31.68a78.06,78.06,0,0,1,11.82-.8c7.35,0,12.11,1.32,15.84,4.13,4,3,6.54,7.75,6.54,14.58,0,7.4-2.7,12.51-6.43,15.67-4.07,3.39-10.27,5-17.85,5a75.7,75.7,0,0,1-9.93-.57Zm8.78,31.56a16.12,16.12,0,0,0,3,.17c7.92.06,13.08-4.3,13.08-13.54.06-8-4.65-12.28-12.17-12.28a18.2,18.2,0,0,0-4,.34Z"/><path class="cls-2" d="M176.07,68.06a43.29,43.29,0,0,1-12.91,2.18c-7.06,0-12.17-1.78-15.72-5.22S141.92,56.64,142,51c.06-12.86,9.41-20.2,22.09-20.2a26.62,26.62,0,0,1,10.73,1.89l-1.84,7A21.43,21.43,0,0,0,164,38c-7.29,0-12.8,4.13-12.8,12.51,0,8,5,12.68,12.17,12.68a11.7,11.7,0,0,0,4.3-.57V54.52h-6V47.69h14.4Z"/></g></g></svg>